<svg xmlns="http://www.w3.org/2000/svg" xmlns:xlink="http://www.w3.org/1999/xlink">
<symbol id="arrow-left"><g><path d="M50 11H7.7l8.1-8.2L13 0 0 13l13 13 2.8-2.8L7.7 15H50v-4Z"/></g></symbol>
<symbol id="arrow-right"><g><path d="M0 11h42.3l-8.1-8.2L37 0l13 13-13 13-2.8-2.8 8.1-8.2H0v-4Z"/></g></symbol>
<symbol id="cart"><g><path d="M20.188 6.857h-3.55L13.188.381C12.985 0 12.58-.095 12.174.095s-.507.572-.304.953l3.145 5.81H5.783l3.145-5.81c.202-.381 0-.762-.305-.953-.406-.19-.811 0-1.014.286l-3.45 6.476H.812c-.406 0-.812.286-.812.762 0 .381.304.762.812.762h.202l.914 2.857c-.203.095-.305.286-.305.572 0 .38.305.666.71.666L4.058 18h12.884l1.725-5.524c.405 0 .71-.286.71-.667 0-.19-.102-.476-.304-.57l.912-2.858h.203c.406 0 .812-.286.812-.762 0-.476-.406-.762-.812-.762Zm-4.565 9.62H5.073L3.854 12.38h13.087l-1.319 4.095Zm1.623-5.525H3.348l-.812-2.666h15.522l-.812 2.666Z"/></g></symbol>
<symbol id="fb"><g><path d="M11.704 5.255c.998 0 1.997 0 2.697-.302.4-.804.599-1.91.599-3.017-.2 0-.1-.302-.2-.402 0-.201-.3-.201-.3-.403-.3-.2-.499-.402-.699-.603-.699-.201-1.398-.302-2.197-.503-.8 0-1.898-.1-2.598.1-2.597 0-3.995 1.107-5.294 2.414 0 .101 0 .202-.1.202-.6 1.609-.1 3.62-.2 5.632.1.402.1 1.005.2 1.408-.999.301-2.198.402-3.396.502-.3.302-.2 1.107-.2 1.71.1.604.3 1.106.4 1.61.2.2.599.402.799.502.1 0 .1.1.1.1.5.302 1.498 0 2.297.101-.1 2.012.3 3.923 0 5.733 0 .301.3.402.2.804 0 1.006-.1 2.012.2 2.716-.3.503-.5 1.005-.4 1.81.1 0 .1.201.1.302-.1.503.6.2.5.704.2.503-.4.2-.4.503v.905c.5.301 1.498.2 2.297.2.9-.401 2.198-.502 2.797-1.206.5.201.9 0 1.2-.201 0-.302.299-.302.199-.704 0-.302-.2-.503-.1-.905V22.05c-.2-2.313 0-4.928-.3-7.24.9-.101 1.898-.101 2.598-.403.4-.503.4-1.207.5-1.911.199-.201.199-.604.199-1.006.2-.2.1-.704.1-1.106-.1-.603-.2-1.307-.8-1.408-.898-.201-1.997.603-2.996.302 0-1.107-.3-2.313 0-3.42.799-.2 1.498-.402 2.197-.603Zm-3.796 4.827c.1.302.3.503.4.704.099 0 .199 0 .199.1 1.199.101 2.198-.1 3.097-.3 0 1.005-.3 1.709-.5 2.513-.7 0-1.498.302-1.998.201-.3.202-.4.503-.6.704 0 .403.1.503 0 .805-.199.1-.099.604-.199.805v1.508c.1.302-.1.302-.1.503v3.52c-.1.302.1.302.1.503v3.017c.1.302-.1.805.1.905-.1.402-.4 0-.8.1-.499.101-.898.403-1.498.403.1-.402.3-.603.3-1.106 0-.402-.4-.302-.5-.503.2-.604.6-1.106.7-1.81.2-.503.7-1.308.3-1.81-.5-.101-.5.301-.8.402 0 .1 0 .2-.1.2 0 .101 0 .202-.1.202 0 .1-.2.1 0 0 0-.1 0-.201.1-.201 0-.1 0-.201.1-.201v-.302c.4-.604.7-1.207.8-2.011.2-.302.3-.704.4-1.006.199-.302.299-.905.1-1.207-.5 0-.8.302-.9.704-.3-.201.2-.402.1-.704.1-.201.2-.604.3-.805.2-.402.599-1.307 0-1.609-.4 0-.6.201-.7.503-.2.201-.4.402-.5.704-.399-.1-.099-.704-.199-1.106-.1-.503.1-.905 0-1.207-.6-.805-1.998-.1-3.196-.302-.1-.301-.2-1.005-.1-1.207.999-.1 2.497.201 3.196-.2 0-.101 0-.202.1-.202.1-.704-.3-1.006-.5-1.408.2-.804 0-2.011.1-3.017.2-.1.3-.402.5-.603.1-1.006.7-1.509.7-2.515-.3 0-.6-.1-.6.201-.3-.1-.4.503-.5.202-.1-.503.2-.604.3-1.006.6-.402 1.199-.805 1.898-1.207 1.698-.201 4.595-.402 6.094.201.1.604-.3.905-.2 1.509h-1.499c-1.098.2-1.997.704-2.996 1.005-.2.101-.3.302-.5.403 0 .402-.2.603-.3 1.005-.3 1.408-.1 2.615-.1 4.023Z"/></g></symbol>
<symbol id="htmlacademy"><g><path d="M13.65 0h-.1L0 1.396v24.627L13.55 34 27 26.023V1.396L13.65 0Zm11.443 12.065L13.55 5.285v-.1h-.1l-.1-.1v.1l-11.443 6.88V3.09L13.45 1.894l11.643 1.197v8.974ZM13.45 6.78l11.543 6.68-4.517 2.593-7.127-4.188v1.396l5.922 3.49-.903.498-5.019-2.99v1.395l3.815 2.293-.803.499-3.012-1.795v1.396l1.908 1.097-1.807 1.097-11.443-6.68L13.45 6.78ZM1.907 15.056l11.442 6.78v.997L5.42 18.147v1.396l8.03 4.785v1.097L5.42 20.74v1.396l8.03 4.786 8.13-4.886V16.85l3.413-1.994v9.971l-11.543 6.88-11.543-6.78v-9.871Z"/></g></symbol>
<symbol id="insta"><g><path d="M22 12.085c0-2.377-.302-4.755-.302-7.033 0-.793-.1-1.486-.201-2.278-.1-.298-.1-.694-.202-1.09-.302-.198-.2-.594-.503-.792-.402-.199-1.208-.1-1.71-.199-.705 0-1.31-.099-1.913-.198-1.913-.099-4.026-.099-6.04-.099C9.118.396 7.105.297 5.394 0H3.178c-.1 0-.1.1-.201.1-.604 0-1.107.197-1.61.296-.202.1-.403.198-.705.297-.1.199-.503.1-.604.397-.201.198.201.495 0 .594v.891c.201.1 0 .595.1.793v.99c0 1.288.101 2.378.101 3.666.504 2.773.403 6.438.101 9.31.201.595.403 1.09.503 1.685.302.495.302 1.09.705 1.486.503.198 1.208.198 1.912.198.403.099.705.297 1.107.297 2.819-.198 5.536-.198 8.455-.198 2.718.198 5.838.198 8.354-.198.201-.1.1-.495.201-.793-.1-.396.202-.396.202-.792.201-2.08.201-4.458.201-6.934ZM8.915 5.943a9.485 9.485 0 0 1 2.416-.297c.705.1 1.309.297 1.912.496.101.198-.2.495.202.693.1 0 .1 0 .201.099.403 0 .805.198 1.107.396.503.1.503.495 1.107.396-.1.199-.1.496-.1.793.302 1.189.503 2.774.302 4.26-.202.197-.202.396-.302.693-.302.297-.504.792-.806 1.09-.1.197-.302.396-.503.495-.1.198-.201.495-.503.495-.302.198-.604 0-.805-.1-.403.199-.906.298-1.208.595l-2.416-.297c-.201-.1-.503-.297-.805-.297a2.198 2.198 0 0 0-.805-.495c-.1-.1-.302-.1-.503-.199-.202 0-.202-.198-.504-.198-.1-.396-.402-.594-.503-1.09-.201-.296-.302-.792-.503-1.188 0-1.387.1-2.675.402-3.764.302-.594.806-1.09 1.108-1.684.2 0 .402-.1.402-.297.302.099.403-.1.705-.1.201 0 .201-.296.402-.495ZM7.205 3.27c-.101-.297-.101-.694-.101-1.09 0-.297.302-.297.302-.495 0-.1-.101-.1-.202-.1.101-.098.705-.098.806 0 .1.496-.403.496-.504.694 0 .198.302 0 .504.1 0 .89-.101 1.485 0 2.179h-.504c0 .198.202.198.504.198-.101.297.1.396.1.594-.201.198-.704 0-1.107.1 0-.595.302-1.388.201-2.18ZM6.5 1.684c.1 0 .1 0 .201.099.201.297 0 .693-.1.892-.202-.199 0-.694-.101-.991ZM6.7 3.467c-.1-.1-.201-.198-.201-.495.201.099.201.297.201.495Zm0 1.387c-.1.099-.1 0-.1-.198.1-.1.1.099.1.198Zm-.201.198c.201 0 .1.198.201.198 0 .198-.302.198-.403.1.101-.1.202-.2.202-.298ZM4.185 3.863c0-.099 0-.198-.1-.198-.102-.693.1-1.387 0-1.981.301-.198.804 0 1.106-.1v1.09c-.1.1-.201.1-.402.1-.101.297.302.099.402.297 0 .891-.1 1.783.202 2.377-.604-.099-.906.1-1.41.1.101-.595 0-1.388.504-1.586 0-.099-.302 0-.302-.099Zm-.503 0c-.202 0-.202-.495-.101-.594.302 0 .201.495.1.594Zm-.202.99c.1-.296 0-.296.1-.693.202 0 .202.793-.1.694Zm.202-2.08c-.302.1-.302-.297-.202-.396.302 0 .403.298.202.397Zm0-1.089c0 .198-.101.198-.101.297-.201 0-.1-.198-.201-.198.1-.099.2-.099.302-.099ZM3.48 5.349c.1 0 .1.297-.1.198.1 0 .1-.099.1-.198Zm-.704-3.665a.202.202 0 0 1-.403 0h.403Zm-1.007.099c0 .198-.302.198-.402.396-.202-.198.1-.495.402-.396Zm-.402.693c.2-.198.503-.396.704-.594 0-.099.1-.099.1-.198h.202c.1.396-.302.297-.302.495 0 .1-.1.1-.1.198 0 .298.1.595.1.99-.302 0-.302.298-.604.199 0-.396-.201-.594-.1-1.09Zm.1 3.27V4.16c.202-.198.403-.396.604-.495.302.495.201 1.387.503 1.882-.402.1-.805.1-1.107.198ZM19.786 16.74c-.101.99-.202 1.98-.403 2.773-2.919.1-6.039 0-8.958.198-.201 0-.302 0-.201-.198-.302 0-.302.198-.503.198.2-.297.402-.891.2-1.288-.804 0-.804.793-1.106 1.288-.705-.099-1.107.1-1.812.1.201-.694.705-.991.906-1.685-.403-.495-1.007.1-1.208.496-.201.495-.604.792-.805 1.287H4.889c.202-.495.504-.891.806-1.386.2-.496.603-.694.704-1.387-.201-.297-.402 0-.704 0-.101.198-.302.297-.403.495-.201.396-.503.694-.705 1.09-.2.198-.302 0-.503.198-.402.297-.604.693-1.006.99-.202-.099 0-.396.2-.396 0-.198-.1-.495.102-.594.1-.396.2-.595.402-.892.1-.693.503-1.188.705-1.882-.604.1-.705.595-1.007.99-.201.397-.503.793-.704 1.288-.202-.098 0-.594-.101-.792.1-.594.302-1.09.403-1.684.1-.198.2-.495.2-.792.202-.199 0-.595-.1-.793-.201 0-.402.1-.503.297-.201 0-.201.496-.302.297 0-2.575-.503-4.754-.503-7.33 0-.297-.201-.396-.201-.693 1.61 0 3.12.099 4.83.198-.1.1-.2.297-.301.396-.1.1-.201.198-.403.297-.604 1.684-1.006 3.963-.604 6.142.202.594.604.99 1.007 1.387.906.495 1.61 1.09 2.516 1.684 1.711.396 3.825.396 5.536 0 .201-.1.503-.198.704-.396 1.41-1.19 2.819-2.477 3.02-4.854V10.4c-.201-1.585-.705-2.873-1.711-3.566.302-.198 1.107 0 1.711.099h.704c.403 0 .906-.1 1.41 0 .1.198.1.495.2.792-.1 1.684-.2 3.27-.2 5.052.1.496.1.99.2 1.387-.2.793-.301 1.684-.502 2.576Zm.402-11.095c-.604-.099-1.207-.297-1.912-.396.1-.297.805 0 1.006-.198.403-.198.302-.892.302-1.486 0-.297.101-.594.101-1.09-.403-.99-1.812-.396-2.919-.495-.201.694-.503 1.783-.302 2.675.202.495 1.007.297 1.51.495-.1.297-.705.099-1.006.099-.302-.1-.705-.1-1.007-.198-2.315.099-4.328 0-6.542.198.1-1.189.1-2.476-.101-3.566h3.12c-.302.396-.906.495-1.308.792-.403.199-.906.496-1.107.892.2.099.503-.198.805-.396.402-.1.503-.397.805-.496.403-.396 1.107-.594 1.711-.891.403 0 .705 0 1.007.099 1.308 0 2.516.099 3.824.099.604.1 1.51.1 2.013.297l.302.892c-.1.99-.302 1.783-.302 2.674ZM14.25 1.981c.1-.099 0-.099 0 0Zm0 0c-.503.198-1.007.297-1.41.694.504-.199 1.108-.298 1.41-.694Zm1.107.594c.1-.099 0-.099 0 0Zm-1.812.892c.705-.198 1.208-.594 1.711-.892-.402 0-.604.298-1.006.397-.1.198-.503.198-.705.495Zm-.704-.792c-.1 0 .1.099 0 0Zm-.604.594c.1-.1 0-.1 0 0Zm-.1.099c.1 0 .1-.1 0 0 0-.1 0-.1 0 0Zm-.101 0c.1 0 .1 0 0 0 0-.1 0 0 0 0Zm-.806.594c.302-.099.604-.297.806-.594-.302.198-.604.396-.806.594Zm2.315.99c.504 0 .705-.395 1.208-.494.302-.298.805-.397 1.007-.793-.604 0-.806.396-1.208.495-.302.397-.805.496-1.007.793Zm-2.315-.99c-.302 0 0 .297 0 0Zm-.604.396c.101 0 .202 0 0 0 .101-.099 0 0 0 0Zm2.92.595c-.202.099 0 .099 0 0Zm-1.208 1.783c-.202-.198-.705-.198-1.007-.396-.704 0-1.208.099-1.711.198-.302.198-.604.297-.906.495-.302.198-.403.396-.805.495-.201.198-.403.496-.705.595 0 .198-.201.297-.302.396-.1.099-.1.297-.2.396 0 .1 0 .297-.102.297.101 1.486.302 2.873.705 4.16.302.595 1.006.793 1.41 1.288.603.297 1.308.397 2.113.496.302-.1.604-.1.906-.1 1.207-.197 2.113-.693 2.818-1.386.1-.297.302-.495.503-.694-.302-.693.302-1.09.503-1.585 0-1.287-.201-2.476-.604-3.367-.302-.595-.905-.793-1.409-1.09-.1 0-.201 0-.201-.1-.201-.098-.704-.197-1.006-.098Zm-3.423 4.358c-.1-.099-.1-.198-.2-.396.301-.099.2.198.2.396Zm.101.298c0-.1.1 0 0 0 0 .198 0 .099 0 0Zm.403-2.08c0-.1.1 0 0 0 .1.098 0 .098 0 0Zm1.71-2.08c-.2.296 0 .593.101.792-.302 0-.604-.793-.1-.793Zm.403 3.862c-.1 0 0 0 0 0 .101 0 0 .1 0 0Zm.705 2.873c0-.1.1 0 .201 0 0 .099-.201.099-.201 0Zm2.214-2.476c-.201-.1-.1.198-.402.198.1-.198.1-.297.2-.496.202 0 .303.1.202.298Zm-1.107-3.765c.201.1.403.199.604.397.1.198.201.396.402.495.101.792.202 1.486.202 2.377-.302.1-.403.298-.705.397-.805 0-1.409-.199-1.912-.496-.201-.297-.403-.495-.503-.792v-1.09c.201-.198.302-.396.503-.594.201-.1.503-.198.503-.595 0-.099-.1-.099-.1-.198.2 0 .2.198.402.198.201 0 .302-.198.604-.099Z"/></g></symbol>
<symbol id="interior"><g><g><path d="M15.162 37.717c-.3.995-.2 2.19 0 3.583.499 2.587 1.696 5.971 2.394 9.653h5.087c.699-3.582 1.896-6.966 2.494-9.653.3-1.393.3-2.687 0-3.583-.3-.895-.898-1.592-1.995-2.289h-5.985c-1.197.697-1.796 1.394-1.995 2.29ZM26.933 57.621H13.167c-1.297 0-2.294.995-2.294 2.19V62h18.354v-2.19c0-1.194-.997-2.189-2.294-2.189ZM34.015 2.19h-11.67C22.344.994 21.346 0 20.05 0s-2.294.995-2.294 2.19H6.085L0 27.566c.798-.498 1.596-.995 2.594-.995 1.396 0 2.194.796 2.892 1.393.699.597 1.197.796 1.397.796.299 0 .798-.298 1.496-.796.698-.498 1.596-1.393 2.893-1.393 1.297 0 2.194.796 2.893 1.393.698.498 1.197.796 1.496.796.1 0 .3-.1.598-.199.2-.1.5-.398.898-.597.499-.398 1.097-.995 1.995-1.194.3-.1.599-.1.898-.1 1.297 0 2.194.796 2.893 1.393.698.498 1.197.797 1.496.797.3 0 .798-.299 1.396-.797.699-.597 1.596-1.393 2.893-1.393 1.397 0 2.195.796 2.893 1.393.3.3.598.498.898.598.2.1.399.199.598.199.3 0 .798-.299 1.397-.896.698-.597 1.596-1.393 2.892-1.393.998 0 1.796.497 2.594.995L34.015 2.189ZM23.441 53.143h-6.883c-.698 0-1.097.497-1.097 1.094 0 .598.499 1.095 1.097 1.095h6.883c.699 0 1.098-.497 1.098-1.095.1-.597-.4-1.094-1.098-1.094Z"/><path d="M20.05 28.76c-.1 0-.3.1-.599.2-.2.1-.399.298-.598.398v3.682h2.294v-3.583c-.499-.398-.898-.697-1.097-.697Z"/></g></g></symbol>
<symbol id="mail"><g><path d="M28 0H4C1.8 0 0 1.8 0 4v13c0 2.2 1.8 4 4 4h24c2.2 0 4-1.8 4-4V4c0-2.2-1.8-4-4-4ZM2 5.3l7 5.3-7 5.3V5.3ZM30 17c0 1.1-.9 2-2 2H4c-1.1 0-2-.9-2-2l7.8-5.9 4.4 3.3c.5.4 1.2.6 1.8.6.6 0 1.3-.2 1.8-.6l4.4-3.3L30 17Zm0-1.2-7-5.3 7-5.3v10.6Zm-12.8-2.2c-.4.3-.8.4-1.2.4-.4 0-.9-.1-1.2-.4l-4.1-3.1-.8-.6L2 4c0-1.1.9-2 2-2h24c1.1 0 2 .9 2 2l-12.8 9.6Z"/></g></symbol>
<symbol id="phone"><g><g><path d="M17.44 24h-1.11c-4.939-.593-8.568-2.864-11.189-5.728C2.521 15.408.403 11.753 0 6.716V5.333c.1-.888.504-1.481 1.109-2.074.605-.69 1.613-1.481 2.52-1.58.706 0 1.815.494 2.218 1.087.403.493.605 1.58.806 2.37.202.889.605 1.975.504 2.765-.201 1.186-1.814 1.68-2.217 2.568 1.612 3.655 4.133 6.42 7.56 8.198.806-.494 1.613-1.877 2.823-1.877.403 0 1.008.198 1.41.297.505.098.908.296 1.311.493.706.297 2.017.593 2.42 1.186.403.592.705 1.58.605 2.172-.303 1.284-2.42 2.667-3.63 3.062ZM12.6 1.481c5.948 0 10.888 4.741 10.888 10.667H25C25 5.432 19.456 0 12.6 0v1.481Z"/><path d="M12.6 9.185v1.58c.807 0 1.412.593 1.412 1.383h1.613c0-1.58-1.31-2.963-3.024-2.963ZM12.6 6.124c3.327 0 6.15 2.666 6.15 6.024h1.613c0-4.148-3.427-7.506-7.661-7.506v1.482H12.6Z"/></g></g></symbol>
<symbol id="search"><g><path d="m17.693 16.057-3.477-3.477c1.023-1.33 1.534-2.966 1.534-4.705C15.75 3.477 12.273 0 7.875 0S0 3.477 0 7.875s3.477 7.875 7.875 7.875c1.739 0 3.375-.614 4.704-1.534l3.478 3.477c.204.205.409.307.818.307.614 0 1.125-.511 1.125-1.125 0-.204-.102-.511-.307-.818ZM2.25 7.875c0-3.068 2.557-5.625 5.625-5.625S13.5 4.807 13.5 7.875 10.943 13.5 7.875 13.5 2.25 10.943 2.25 7.875Z"/></g></symbol>
<symbol id="toy"><g><path d="M0 43.993 27.4 60V36.544L0 20.436v23.557Zm51.3-31.51V15c0 1.812-3.5 3.322-7.7 3.322-4.3 0-7.7-1.51-7.7-3.322v-4.127c.3 1.71 3.6 3.12 7.7 3.12 4.3 0 7.7-1.51 7.7-3.322S47.8 7.35 43.6 7.35h-1l-5-2.92V7.55c0 1.812-3.5 3.323-7.7 3.323-2.7 0-5-.604-6.4-1.51-.2-.202-.4-.403-.7-.605-.4-.402-.6-.805-.6-1.208V4.53L17.4 7.35h-1.1c-4.3 0-7.7 1.51-7.7 3.322s3.5 3.322 7.7 3.322c4.1 0 7.4-1.41 7.7-3.12V15c0 1.812-3.5 3.322-7.7 3.322-4.3 0-7.7-1.51-7.7-3.322v-2.416l-6 3.523 27.5 16.108 27.4-16.007-6.2-3.725ZM37.7 22.752c0 1.812-3.5 3.322-7.7 3.322-4.3 0-7.7-1.51-7.7-3.322v-4.128c.3 1.712 3.6 3.121 7.7 3.121s7.4-1.41 7.7-3.12v4.127Zm-5.1 13.993V60L60 43.993V20.738L32.6 36.745Zm-2.7-30.1c4.3 0 7.7-1.51 7.7-3.323C37.6 1.51 34.1 0 29.9 0c-4.3 0-7.7 1.51-7.7 3.322s3.4 3.322 7.7 3.322Z"/></g></symbol>
<symbol id="twitter"><g><path d="M22.957 4.242c-.194-.404-.874-.303-1.36-.404h-1.07c.098-.404.292-.606.487-1.01.097-.404.291-.707.194-1.313L21.5.91c.097-.1.194-.505.097-.707C21.5 0 21.305 0 21.014 0c-.097 0-.195.101-.195.101-.388.404-.777 1.01-1.263 1.414h-.097c-.097 0 0 0-.097.101s-.292.202-.389.202c-.291.202-.486.404-.874.505-.486-.202-1.166-.303-1.846-.404-1.167.101-2.235.202-2.916.707-.874.303-1.457 1.01-2.04 1.616 0 .303-.292.404-.389.707 0 0 0 .102-.097.102 0 .202-.097.303-.097.505 0 .1.194.404 0 .505-.777-.101-1.458-.606-2.04-1.01-.68-.405-1.458-.607-2.041-1.112-.68-.303-1.263-.808-1.75-1.313-.194-.303-.485-.505-.68-.909-.388-.202-.194-.909-.68-.909-.291 0-.291.202-.388.404-.097.202-.389.202-.389.505 0 0 0 .101-.097.101-.195 1.111-.486 2.02-.486 3.334.097.404.292.707.583 1.01-.389.1-.68.202-.875.505-.097 1.11.39 1.616.68 2.323.098.404.39.707.584 1.01 0 .202.194.303.291.404 0 .101.097.101.097.202s.292.202.098.202c-.39.101-.972.101-1.264.404a2.154 2.154 0 0 0 0 1.111c0 .202.292.303.292.505.486.404 1.069.707 1.555 1.111.583.202 1.166.303 1.846.404-.097.303-.292.607-.583.707-.778.404-1.75.506-2.624.708-.583 0-.972.202-1.555.202-.291.1-.874.1-1.068.202-.098.1-.098.1-.195.202-.097.404.097.707.389.909 0 .303.194.303.389.404.097.202.291.303.388.404.486.505 1.263.808 1.847 1.11.777.203 1.554.405 2.429.506.874.101 1.846.101 2.72.202h.972c.486.101 1.166.101 1.846.101.097-.101.292-.101.486-.101.486-.303 1.166-.404 1.555-.707.583-.202.972-.606 1.555-.91.874-.807 1.846-1.312 2.429-2.423.194-.202.389-.405.389-.707.291-.202.388-.505.582-.708.39-.404.68-.909.972-1.414.292-.505.583-1.11.875-1.616 0-.404.291-.505.291-.909.195-.202.195-.707.389-.909 0-.303 0-.404.097-.606 0-1.313 0-2.424-.291-3.434.583-.202 1.166-.303 1.554-.607.778.304 1.263-.1 1.07-.707Zm-3.304 4.04c-.194.91-.583 1.415-.971 2.021.097.404-.098.505-.098.91-.194.302-.291.706-.388 1.01-.195.302-.292.605-.486.908-.389.505-.777 1.111-1.166 1.617-.389.606-.875 1.01-1.263 1.515-.389.505-.875.909-1.36 1.313-.486.202-.875.404-1.264.707-.194.1-.486.202-.68.303-.194.1-.486.1-.68.303-1.069.1-2.235.202-3.498.1-.972-.1-2.04-.201-2.915-.403s-1.458-.707-2.235-1.01c.194-.202.583-.202.972-.202 0-.202.388 0 .388-.101.292.1.292-.101.486-.101.583-.202 1.166-.303 1.652-.606.291-.101.389-.404.68-.606 0-.202.097-.303.194-.404 0-.303.195-.404.098-.808.097-.202.291-.304.291-.708-.097-.1-.097-.303-.291-.404 0-.202-.39-.1-.39-.202-.29 0-.388 0-.582-.1-.194 0-.486.1-.486-.102-.777 0-1.263-.404-1.846-.707.389-.303.972-.404 1.263-.707.486-.1 1.069-.1 1.069-.707 0-.707-.777-.707-1.263-.808-.778-.707-1.166-1.717-1.75-2.525.195-.202.584-.202.68-.404.487.1.487-.303.681-.505 0-.505-.291-.606-.583-.808-.291-.202-.486-.505-.68-.707 0-.809 0-1.718.097-2.425.097 0 .097 0 .097.101.195.404.583.808.778 1.212.485.404.874.91 1.554 1.112.486.404 1.07.606 1.555 1.01.583.303 1.166.606 1.652.909.68.202 1.069.707 1.943.606l.583-.303c.292-.505-.097-1.111.097-1.616.292-.707.778-1.01 1.264-1.516.291-.202.583-.303.777-.505.291-.1.68-.202.972-.404.388 0 .68-.1.971-.1h1.264c.194.1.485.1.68.1.194.101.388.303.68.404.777.707 1.263 1.718 1.36 3.03 0 .304.097.708.097 1.314Zm.292-5.656c-.097.303-.194.707-.583.808 0-.1-.097-.1-.097-.202 0-.202.194-.202.291-.303.097-.1.195-.303.389-.303.097 0 0-.1 0 0ZM14.6 5.656c.194.102.291.304.485.405.098.202.292.303.583.404 0-.202.292 0 .39-.202.194 0 .194-.202.29-.303 0-.505-.096-1.01-.388-1.314-.68-.505-1.652 0-1.36 1.01Z"/></g></symbol>
<symbol id="logotype-mobile"><path d="M4.547 26.319c0-3.5-.3-6.9-.4-10.4v-1c0 .1.1.2.1.4.5 1.4 1.1 2.7 1.8 3.9.7 1.2 1.1 2.6 1.5 3.9-.2.2-.3.4-.2.6 0 .2.1.2.2.3.5.5 1.5.2 2.1 0 .2-.1.5-.2.7-.4.3-.2.7-.6.6-1 0-.1 0-.2-.1-.2.4-1.1.6-2.2.8-3.3.2-1.2.7-2.3 1.1-3.5 0 .5.1 1 .1 1.6.2 2.1 0 4.3 0 6.4 0 .7 0 1.4.2 2.1.1.3.3 1.5.2 1.6-.5.5-.4 1.1.3 1.2.8.2 1.8-.1 2.3-.6 1-.9.5-2.4.3-3.6-.4-2 .1-4.2 0-6.2-.1-2.3-.4-4.5-.4-6.8 0-1.8.3-3.7-.3-5.5 0-.2.1-.4.1-.6.2-.9-2.8-.4-3.2.4-.3.2-.4.5-.3.8 0 .1.1.1.1.2-.6 2.7-1.3 5.3-2.2 7.9-.3 1-.7 2-1.1 3-.5-.9-1-1.9-1.4-2.8-1.2-2.9-2.2-5.8-3.6-8.6.2-1.3-2.7-1.2-3.3 0-.7 1.4-.6 2.9-.4 4.4.3 1.7.3 3.4.3 5.1 0 3.3.3 6.7.4 10-.3.3-.4.7-.1 1.2.1.2.3.3.5.5 1.2.7 3.3.2 3.3-1ZM22.747 7.919c-.1-.6-3.4.1-3.3.9.3 1.8.2 3.6.1 5.4 0 1.7.4 3.3.6 5 .2 1.7-.1 3.5.1 5.2.1.8.6 2.3.1 3-.4.4 1.2.3 1.3.3.6-.1 1.5-.3 1.9-.9.6-.7.2-2 0-2.8-.3-1.7-.1-3.5-.2-5.3-.1-1.7-.6-3.3-.7-4.9.3-2 .4-3.9.1-5.9ZM25.947 14.619c.9 2.5 4.6 1.3 6.6 1.5 3.2.2 2.3 4.6 2.3 6.6 0 1.1 1 2.9.2 3.8-.5.6-1.7.6-2.4.6-.7.1-1.9.3-2.3-.4-.8-1.2.1-3.2-.1-4.6-.1-.8-3.4-.1-3.3.9.3 2.2-1.2 5.2 2 5.6 2.1.2 4.4-.1 6.3-.8 1-.3 1.9-.8 2.7-1.5.9-.8.6-2 .4-3-.6-2.5.6-5.3-1-7.5-1.7-2.3-5-.7-7.2-1.3-1.2-.2-1.2-1.8-1.2-2.8 0-1.2-.1-2.3-.2-3.5-.1-.9 0-1.8.6-2.4.1-.1.7-.3.7-.3.3-.1.6-.1.9-.1 1.3-.1 3.9.2 3.4 2.1-.2.9 3 .4 3.3-.5 1-3.9-6.1-3.1-8.2-2.6-1.9.5-3.9 1.6-4 3.7-.1 1 .2 2 .3 3 0 1.2-.3 2.4.2 3.5ZM40.347 16.519c-.1 1.8-.2 3.6-.2 5.4 0 .9.1 1.8.3 2.8.1.8.4 2 .2 2.8-.2.6 3 .2 3.3-.6.5-1.5-.2-3.4-.3-4.9-.1-1.5 0-2.9.1-4.4 1.7-.1 3.4-.2 5.1 0 .1 1.2.2 2.3.3 3.5.1 1 .2 1.9.2 2.9 0 .9.1 2.1-.2 2.9-.7 1.7 2.7 1.6 3.1.3.6-1.6.4-3.5.3-5.2-.3-2.2-.6-4.2-.6-6.3-.1-3.2-.6-6.3-.6-9.5 0-1.7-3.3-1.1-3.3.3 0 3 .4 6 .6 9.1v.2c-1.6 0-3.3.1-4.9.2.2-3.9-.5-7.8-.4-11.7 0-.5-3.3-.1-3.3.9-.2 3.8.4 7.5.3 11.3ZM54.447 21.819c-.3.3-.2.4 0 .5 0 1.5 0 2.9-.2 4.4-.4.6.4 1 .9 1h.1c.6 0 2.2-.3 2.3-1.1.2-1.8.2-3.5.2-5.3 1.3-1.4 2.4-3.1 3.4-4.7.6 1.2 1.2 2.5 1.7 3.9.7 2.3 1.9 4.4 2.6 6.8.5 1.5 3.8.6 3.3-.9-.7-2.3-1.9-4.5-2.6-6.8-.8-2.3-2-4.4-3-6.6.8-1.6 1.7-3.3 2.5-5 .7-1.5 1.2-3.2 2.6-4.3.5-.4.5-.8-.2-.8-.7-.1-1.7.2-2.3.6-1.3 1-2 2.2-2.7 3.6-.8 1.7-1.6 3.4-2.5 5.1-.1.1-.1.2-.2.4-.4.3-.7.6-.5 1.1-.7 1.3-1.3 2.6-2.1 3.9-.3-4.7-.8-9.3-1-14 0-1.1-3.3-.4-3.3.9.2 5.7 1 11.5 1 17.3ZM85.947 15.619c-.2-.7-1.2-.7-1.9-.6v-.8c-.1-2.2-.1-4.5-.3-6.8-.2-2.1-1.3-2.8-3.3-2.7-2 .1-4.4.4-6.3 1.2-2.2.9-3.4 2.5-3.8 4.8-.5 2.5.2 5.2.3 7.8.1 3 .1 5.9.1 8.9 0 .5 3.3 0 3.3-.9v-7c0-.7 0-1.4-.1-2.1 1.2-.5 3.1 0 4.3.1.9.1 1.8-.1 2.7-.2 0 1.9.1 3.9.2 5.9 0 1 .4 3-.3 3.8-.4.4 1.2.3 1.3.3.7-.1 1.5-.3 1.9-.9.8-.9.4-3.2.3-4.3-.1-1.6-.1-3.2-.1-4.8.8-.4 1.9-1 1.7-1.7Zm-6.6-.2c-1.9 0-3.8-.3-5.7 0-.1-1.1-.2-2.1-.3-3.2-.1-2 .1-4.7 1.9-5.9.5-.3 1.4-.3 2-.4.8-.1 1.6-.3 2.4.2 1 .7.8 3.1.8 4.1 0 1.7.2 3.4.3 5.1-.5.1-1 .1-1.4.1ZM19.147 4.119c0 .2 0 .4.1.5v.4c.1.2.2.3.4.4.3.2.7.2 1.1.2.4 0 .9-.2 1.2-.4l.2-.2c.4-.3.8-.7.6-1.1-.4-.9-.4-1.9-.3-2.9 0-.8-.8-1.1-1.5-1-.6.1-1.8.5-1.8 1.3s-.1 1.7.1 2.5c-.1.1-.1.2-.1.3ZM80.647 33.319c-1.6-.6-3.3-.6-4.9-.8-1.6-.2-3.2-.4-4.9-.6-1.6.1-3.3 0-5 .1l-4.9.3c-6.5.3-13 .3-19.5.1-6.5-.1-13-.5-19.6-.5-3.3 0-6.6.1-9.9.3-1.6.3-3.2.5-4.9.9-1.6.4-3.1.9-4.8 1 1.6.4 3.3.3 5 .3 1.6 0 3.2.1 4.9.2 3.2-.2 6.5-.2 9.7-.3 6.5 0 13 .3 19.6.5 6.5.1 13.1.2 19.7-.1l4.9-.3c1.6-.1 3.2-.1 4.8-.1 1.6-.1 3.3-.3 4.9-.5 1.7-.2 3.2-.6 4.9-.5h.1v-.6c0 .4 0 .5-.1.6Z"/></symbol>
</svg>
