<svg width="768" height="22" viewBox="0 0 768 22" fill="none" xmlns="http://www.w3.org/2000/svg">
<path d="M749.783 0C740.142 0 740.142 9.05882 730.567 9.05882C720.992 9.05882 720.925 0 711.35 0C701.776 0 701.709 9.05882 692.134 9.05882C682.492 9.05882 682.492 0 672.85 0C663.209 0 663.209 9.05882 653.634 9.05882C643.992 9.05882 643.992 0 634.417 0C624.776 0 624.776 9.05882 615.201 9.05882C605.626 9.05882 605.358 0 595.783 0C586.142 0 586.142 9.05882 576.567 9.05882C566.992 9.05882 566.858 0 557.283 0C547.642 0 547.642 9.05882 538.067 9.05882C528.425 9.05882 528.425 0 518.783 0C509.142 0 509.142 9.05882 499.567 9.05882C489.925 9.05882 489.925 0 480.35 0C470.776 0 470.642 9.05882 461 9.05882C451.358 9.05882 451.358 0 441.783 0C432.142 0 432.142 9.05882 422.567 9.05882C412.925 9.05882 412.925 0 403.283 0C393.642 0 393.642 9.05882 384.067 9.05882C374.425 9.05882 374.425 0 364.85 0C355.209 0 355.209 9.05882 345.634 9.05882C335.992 9.05882 335.992 0 326.417 0C316.776 0 316.776 9.05882 307.134 9.05882C297.492 9.05882 297.492 0 287.85 0C278.209 0 278.209 9.05882 268.567 9.05882C258.925 9.05882 258.925 0 249.283 0C239.642 0 239.642 9.05882 230 9.05882C220.358 9.05882 220.358 0 210.717 0C201.075 0 201.075 9.05882 191.433 9.05882C181.791 9.05882 181.791 0 172.15 0C162.508 0 162.508 9.05882 152.933 9.05882C143.291 9.05882 143.291 0 133.65 0C124.008 0 124.008 9.05882 114.366 9.05882C104.724 9.05882 104.724 0 95.0826 0C85.4409 0 85.4409 9.05882 75.7991 9.05882C66.1574 9.05882 66.1574 0 56.5157 0C47.1417 0 47.1417 9.05882 37.5 9.05882C27.8583 9.05882 27.8583 0 18.2835 0C8.70869 0 8.64174 9.05882 -1 9.05882V22H769V9.05882C759.358 9.05882 759.358 0 749.783 0Z" fill="white"/>
</svg>
